:SAMPLES-PER-SECOND 24
:FULLY-SPECIFIED
:DEGREES
396
root  10.5269 40.1284 9.9579 9.11011 4.59491 -1.60373
RightUpLeg  -10.9597 -9.16611 -7.05118
RightLeg  35.6281 -14.5216 -11.1878
RightFoot  -0.844153 -0.221141 2.75894
RightToes  -2.08645e-008 3.77894e-005 6.81332e-007
Spine  -1.64257 -1.8849 -5.26209
Spine1  7.41576 -4.05596 9.57416
HEad  -30.5011 1.46803 2.42889
LeftShoulder1  7.37626 -13.4144 -37.5109
LeftArm  -2.7924 54.4175 -29.0887
LeftForeArm  156.147 -68.9099 -153.044
LeftHand  -0.16094 -3.30712 2.39009
RightShoulder  3.83723 6.2783 33.3462
RightArm  12.9757 -23.4298 30.2817
RightForeArm  145.579 75.5554 138.264
RightHand  -0.166944 8.0812 -1.81247
LeftUpLeg  -8.16309 10.8555 10.4984
LeftLeg  11.9656 15.926 3.31497
LeftFoot  0.570683 1.67181 -15.9061
LeftToes  1.24767e-006 1.47042e-008 1.32732e-009
397
root  9.30143 39.1419 9.31705 9.04883 -0.455322 -2.40958
RightUpLeg  -8.9763 -3.51944 -7.48584
RightLeg  32.6149 -8.1932 -5.87337
RightFoot  -10.3011 -0.137464 13.0161
RightToes  -2.08645e-008 3.77894e-005 6.81332e-007
Spine  -0.560458 -0.745532 -4.82668
Spine1  6.41748 -2.63026 8.34232
HEad  -31.3292 2.37511 3.0468
LeftShoulder1  7.71537 -13.6275 -38.8908
LeftArm  -8.39342 51.5253 -33.1527
LeftForeArm  156.402 -68.7221 -153.336
LeftHand  -0.287719 -2.37121 4.52354
RightShoulder  4.0178 6.46606 34.41
RightArm  14.3163 -17.6421 31.2189
RightForeArm  140.961 76.7003 133.584
RightHand  -0.230083 7.80886 -2.39485
LeftUpLeg  -11.3317 12.2812 12.6336
LeftLeg  20.4701 17.8955 7.49997
LeftFoot  -3.90645 1.22034 -18.3672
LeftToes  1.24767e-006 1.47042e-008 1.32732e-009
398
root  8.11601 38.1538 8.55807 8.27979 -6.30423 -3.82504
RightUpLeg  -9.30017 -0.247243 -5.65002
RightLeg  32.6278 -3.98324 -2.98852
RightFoot  -19.3222 0.741906 12.4764
RightToes  -2.08645e-008 3.77894e-005 6.81332e-007
Spine  1.98332 0.109053 -2.83204
Spine1  6.03148 -1.35531 6.29587
HEad  -33.3331 4.24161 2.59186
LeftShoulder1  8.36385 -14.0764 -41.2918
LeftArm  -11.4639 43.6734 -33.378
LeftForeArm  153.791 -70.3839 -150.626
LeftHand  -0.472472 -1.58316 8.03766
RightShoulder  4.3236 6.80536 36.0218
RightArm  15.185 -9.77912 33.9152
RightForeArm  122.885 79.4248 114.019
RightHand  -0.454373 8.15286 -4.26131
LeftUpLeg  -14.6745 11.8468 16.3467
LeftLeg  32.3707 19.1344 12.9483
LeftFoot  -6.24473 1.16396 -24.9587
LeftToes  1.24767e-006 1.47042e-008 1.32732e-009
399
root  7.08639 37.5456 7.8647 7.67236 -12.4143 -5.30737
RightUpLeg  -10.4081 4.38524 -2.32304
RightLeg  33.995 -5.18069 -3.99738
RightFoot  -23.8943 0.598982 6.82155
RightToes  -2.08645e-008 3.77894e-005 6.81332e-007
Spine  3.96563 0.563914 0.0917234
Spine1  6.41307 -0.190846 3.48662
HEad  -34.8469 6.64901 1.77427
LeftShoulder1  8.80715 -14.4031 -42.792
LeftArm  -11.4489 32.5716 -30.8211
LeftForeArm  151.132 -72.8208 -145.951
LeftHand  -0.616996 -1.24869 10.9497
RightShoulder  4.54408 7.06138 37.0655
RightArm  15.1214 -4.14959 38.24
RightForeArm  95.8924 80.3989 84.9564
RightHand  -0.528318 8.33731 -4.834
LeftUpLeg  -18.3613 12.3063 20.0042
LeftLeg  44.3744 19.6115 19.7582
LeftFoot  -0.148162 2.55188 -26.1657
LeftToes  1.24767e-006 1.47042e-008 1.32732e-009
400
root  6.36617 37.4867 7.47108 7.38452 -17.0825 -5.21436
RightUpLeg  -10.6184 9.3426 -1.21221
RightLeg  33.4213 -6.44073 -4.7963
RightFoot  -24.9776 0.533906 5.88489
RightToes  -2.08645e-008 3.77894e-005 6.81332e-007
Spine  4.69326 0.131199 1.29805
Spine1  6.44708 -0.0446451 1.21872
HEad  -34.8327 9.38681 0.728238
LeftShoulder1  8.67894 -14.3006 -42.3827
LeftArm  -10.6552 22.741 -28.7021
LeftForeArm  152.215 -73.6894 -144.293
LeftHand  -0.591187 -0.939299 10.9696
RightShoulder  4.57351 7.11347 37.1291
RightArm  14.7566 -4.34414 41.451
RightForeArm  95.4793 80.3552 84.7765
RightHand  -0.365564 8.1523 -3.50021
LeftUpLeg  -21.8016 11.0645 21.0185
LeftLeg  51.9331 19.9801 25.4135
LeftFoot  12.3804 3.10591 -15.514
LeftToes  1.24767e-006 1.47042e-008 1.32732e-009
401
root  6.05509 38.1817 7.47929 7.3833 -19.8352 -3.85562
RightUpLeg  -10.0996 10.6171 -2.71087
RightLeg  30.1482 -5.34254 -3.57565
RightFoot  -21.7707 0.36528 5.61797
RightToes  -2.08645e-008 3.77894e-005 6.81332e-007
Spine  5.01668 -1.07898 0.250704
Spine1  5.17747 -1.42159 1.78415
HEad  -34.313 12.5717 -1.97227
LeftShoulder1  8.35171 -14.0478 -41.2995
LeftArm  -9.59571 17.0594 -28.6949
LeftForeArm  154.597 -72.9273 -146.284
LeftHand  -0.512854 -0.769269 9.78964
RightShoulder  4.41795 6.9904 36.1771
RightArm  16.0677 -8.25902 40.9655
RightForeArm  115.212 79.852 106.852
RightHand  -0.364484 8.04046 -3.51804
LeftUpLeg  -23.5347 8.6607 18.8953
LeftLeg  50.908 17.3744 21.8383
LeftFoot  17.2581 1.7797 -7.2885
LeftToes  1.24767e-006 1.47042e-008 1.32732e-009
402
root  5.99128 39.4463 7.74468 8.07617 -23.2913 -2.69534
RightUpLeg  -9.75518 10.671 -4.76301
RightLeg  25.0487 -2.36449 -1.4302
RightFoot  -14.1569 0.0151043 4.51895
RightToes  -2.08645e-008 3.77894e-005 6.81332e-007
Spine  5.13158 -1.61954 -1.59527
Spine1  3.0615 -2.55959 4.4086
HEad  -33.8528 16.0541 -5.50817
LeftShoulder1  8.10484 -13.8534 -40.4637
LeftArm  -7.06237 14.4629 -30.2496
LeftForeArm  156.728 -71.7693 -148.784
LeftHand  -0.490647 -0.934777 9.14161
RightShoulder  4.14614 6.77716 34.4358
RightArm  18.2824 -12.4824 37.7711
RightForeArm  127.464 78.8012 119.923
RightHand  -0.427495 8.16745 -4.02813
LeftUpLeg  -22.8798 9.12473 15.6007
LeftLeg  42.3349 11.9498 11.8009
LeftFoot  12.7365 2.0734 -10.0704
LeftToes  1.24767e-006 1.47042e-008 1.32732e-009
403
root  5.9657 40.7041 8.12141 9.13672 -28.3998 -1.84784
RightUpLeg  -10.0283 11.4722 -6.80619
RightLeg  19.4501 0.968019 0.0499607
RightFoot  -5.66793 -0.391994 6.98935
RightToes  -2.08645e-008 3.77894e-005 6.81332e-007
Spine  4.77614 -1.26851 -3.12906
Spine1  0.867417 -2.522 6.17461
HEad  -32.7544 19.7135 -7.51095
LeftShoulder1  7.74709 -13.5561 -39.2462
LeftArm  -3.60703 13.2494 -31.8532
LeftForeArm  160.693 -70.3261 -151.664
LeftHand  -0.452931 -1.33348 7.9775
RightShoulder  3.96078 6.6728 33.0371
RightArm  19.8759 -16.7828 33.9676
RightForeArm  132.758 78.1056 125.395
RightHand  -0.274911 8.15569 -2.72529
LeftUpLeg  -20.4588 11.3274 12.6521
LeftLeg  29.6887 8.28857 5.36794
LeftFoot  10.0913 2.87792 -15.4102
LeftToes  1.24767e-006 1.47042e-008 1.32732e-009
404
root  5.90347 41.5713 8.52054 9.93555 -33.3974 -0.962189
RightUpLeg  -10.9767 8.27296 -7.86469
RightLeg  16.5582 0.556552 -0.577091
RightFoot  0.946041 -0.798295 7.63773
RightToes  -2.08645e-008 3.77894e-005 6.81332e-007
Spine  3.7544 -1.14238 -3.9652
Spine1  -0.123572 -2.33563 6.04577
HEad  -31.7881 23.3985 -8.14981
LeftShoulder1  7.2261 -13.1014 -37.4311
LeftArm  -0.359856 11.7769 -32.2271
LeftForeArm  165.105 -68.0669 -155.216
LeftHand  -0.385549 -1.59645 6.5773
RightShoulder  3.94347 6.74961 32.5742
RightArm  20.9023 -20.3756 30.7286
RightForeArm  136.326 77.1532 130.635
RightHand  -0.156691 7.93433 -1.73815
LeftUpLeg  -17.5446 10.0004 11.1014
LeftLeg  16.5656 10.7289 3.5556
LeftFoot  11.428 3.03264 -15.3611
LeftToes  1.24767e-006 1.47042e-008 1.32732e-009
405
root  5.82838 41.7951 8.83311 10.0085 -37.6308 -0.267181
RightUpLeg  -12.302 4.70838 -7.83803
RightLeg  18.7971 -7.01476 -2.98016
RightFoot  3.61752 -0.490697 3.90476
RightToes  -2.08645e-008 3.77894e-005 6.81332e-007
Spine  2.43584 -1.3287 -4.49664
Spine1  0.837646 -2.47289 5.60377
HEad  -32.2108 26.5818 -9.27634
LeftShoulder1  6.64124 -12.5389 -35.3694
LeftArm  2.10112 8.72249 -31.6744
LeftForeArm  167.653 -65.6902 -158.058
LeftHand  -0.331415 -1.65213 5.63599
RightShoulder  3.9277 6.80127 32.2268
RightArm  20.9305 -21.8828 29.1266
RightForeArm  140.116 76.25 134.889
RightHand  -0.21683 7.55529 -2.30792
LeftUpLeg  -15.6693 6.27723 11.0194
LeftLeg  7.08668 12.3818 2.19555
LeftFoot  14.5904 3.15828 -14.0538
LeftToes  1.24767e-006 1.47042e-008 1.32732e-009
